<svg width="99" height="43" viewBox="0 0 99 43" fill="none" xmlns="http://www.w3.org/2000/svg">
<rect x="0.130005" y="0.5" width="98.67" height="42" rx="20" fill="white"/>
<path fill-rule="evenodd" clip-rule="evenodd" d="M23.8883 20.6833H27.37C27.3125 19.3575 27.0733 18.1892 26.7317 17.3358C26.5342 16.8417 26.3142 16.4833 26.1017 16.2583C25.9258 16.0725 25.785 16.0083 25.685 15.9917H25.5742C25.4742 16.0083 25.3333 16.0725 25.1575 16.2583C24.945 16.4833 24.725 16.8417 24.5275 17.3358C24.1858 18.1892 23.9467 19.3575 23.8883 20.6833ZM23.5767 16.4C23.5017 16.5511 23.4317 16.7083 23.3667 16.8717C22.9583 17.8933 22.6967 19.225 22.6383 20.6833H20.3425C20.4539 19.747 20.812 18.8571 21.3801 18.1046C21.9482 17.352 22.7067 16.7638 23.5767 16.4ZM25.4933 14.7425C23.7743 14.7767 22.1372 15.4836 20.9334 16.7113C19.7297 17.939 19.0553 19.5898 19.055 21.3092C19.0544 22.1721 19.224 23.0268 19.554 23.8242C19.8839 24.6216 20.3679 25.3461 20.978 25.9564C21.5882 26.5666 22.3127 27.0506 23.1101 27.3807C23.9074 27.7108 24.762 27.8804 25.625 27.88C26.1117 27.88 26.3508 27.8683 26.55 27.8183C26.6533 27.7925 26.6933 27.7775 26.7275 27.765C26.7758 27.7483 26.81 27.735 26.9875 27.7042L26.7708 26.4733C26.5931 26.5033 26.4181 26.5476 26.2475 26.6058C26.2217 26.6117 26.1375 26.63 25.6283 26.63C25.5275 26.63 25.3675 26.58 25.1567 26.3575C24.9442 26.1325 24.7242 25.775 24.5267 25.2808C24.185 24.4267 23.9458 23.2592 23.8875 21.9333H27.39C27.3799 22.1699 27.3484 22.405 27.2958 22.6358C27.2688 22.7516 27.2377 22.8664 27.2025 22.98L27.1925 23.0133L27.1892 23.0267C27.1608 23.1217 27.115 23.275 27.1058 23.425L28.3542 23.4983V23.5033C28.3542 23.5033 28.36 23.4742 28.3908 23.3692L28.4008 23.3358C28.4325 23.2308 28.4758 23.0875 28.5142 22.915C28.5742 22.6542 28.6258 22.3333 28.6408 21.9333H30.9192C30.8957 22.2023 30.8412 22.4677 30.7567 22.7242C30.7108 22.8575 30.665 22.9575 30.6183 23.06L30.615 23.0683L30.6067 23.085C30.5683 23.1692 30.4967 23.325 30.4725 23.49L31.7092 23.6725L31.705 23.6942C31.705 23.6942 31.715 23.6675 31.7525 23.5858L31.7592 23.5708C31.8058 23.4683 31.8733 23.3208 31.9392 23.13C32.0792 22.7217 32.1975 22.1567 32.1975 21.3083C32.1976 19.5897 31.524 17.9396 30.3212 16.712C29.1185 15.4845 27.4824 14.7774 25.7642 14.7425C25.674 14.7351 25.5835 14.7351 25.4933 14.7425ZM27.6817 16.4008C27.7561 16.5514 27.8261 16.7083 27.8917 16.8717C28.3 17.8933 28.5625 19.225 28.6208 20.6833H30.9125C30.8021 19.747 30.4447 18.8569 29.877 18.1042C29.3093 17.3516 28.5516 16.7634 27.6817 16.4M23.58 26.2217C23.5027 26.0653 23.4315 25.9061 23.3667 25.7442C22.9583 24.7217 22.6958 23.3908 22.6375 21.9325H20.3425C20.4534 22.8703 20.8116 23.7617 21.3805 24.5154C21.9494 25.2691 22.7085 25.858 23.58 26.2217Z" fill="black"/>
<path fill-rule="evenodd" clip-rule="evenodd" d="M33.2042 22.7858H25.9125V28.3258H30.2917L33.2042 30.2633V22.7858ZM31.9542 24.0358V27.9308L30.6692 27.0758H27.1633V24.0358H31.9542Z" fill="black"/>
<rect x="44.13" y="10.5" width="1" height="22" fill="#E0E0E0"/>
<path d="M60.3849 17.2273H62.5568V23.8985C62.5568 24.6476 62.3779 25.303 62.0201 25.8648C61.6657 26.4266 61.1691 26.8646 60.5304 27.179C59.8917 27.49 59.1476 27.6455 58.2983 27.6455C57.4455 27.6455 56.6998 27.49 56.0611 27.179C55.4224 26.8646 54.9259 26.4266 54.5714 25.8648C54.2169 25.303 54.0397 24.6476 54.0397 23.8985V17.2273H56.2116V23.7129C56.2116 24.1042 56.2969 24.452 56.4674 24.7563C56.6413 25.0606 56.8854 25.2997 57.1998 25.4735C57.5141 25.6474 57.8803 25.7344 58.2983 25.7344C58.7196 25.7344 59.0858 25.6474 59.3968 25.4735C59.7111 25.2997 59.9535 25.0606 60.1241 24.7563C60.298 24.452 60.3849 24.1042 60.3849 23.7129V17.2273ZM69.9165 20.1817C69.8764 19.7771 69.7042 19.4627 69.3999 19.2387C69.0956 19.0146 68.6826 18.9026 68.1609 18.9026C67.8065 18.9026 67.5072 18.9528 67.2631 19.0531C67.019 19.1501 66.8317 19.2855 66.7013 19.4594C66.5742 19.6333 66.5107 19.8306 66.5107 20.0513C66.504 20.2352 66.5424 20.3957 66.626 20.5328C66.713 20.6699 66.8317 20.7886 66.9822 20.8889C67.1327 20.9859 67.3065 21.0712 67.5038 21.1448C67.7011 21.215 67.9118 21.2752 68.1359 21.3253L69.0588 21.546C69.5069 21.6464 69.9182 21.7801 70.2927 21.9473C70.6673 22.1145 70.9916 22.3202 71.2658 22.5643C71.54 22.8084 71.7524 23.096 71.9029 23.427C72.0567 23.7581 72.1353 24.1376 72.1386 24.5657C72.1353 25.1943 71.9748 25.7394 71.6571 26.2009C71.3427 26.659 70.888 27.0151 70.2927 27.2693C69.7008 27.5201 68.9869 27.6455 68.1509 27.6455C67.3216 27.6455 66.5993 27.5184 65.984 27.2642C65.3721 27.0101 64.8939 26.6339 64.5494 26.1357C64.2083 25.6341 64.0294 25.0137 64.0127 24.2747H66.1144C66.1378 24.6192 66.2365 24.9067 66.4104 25.1375C66.5876 25.3649 66.8233 25.5371 67.1176 25.6541C67.4152 25.7678 67.7513 25.8247 68.1258 25.8247C68.4937 25.8247 68.813 25.7712 69.0839 25.6642C69.3581 25.5571 69.5704 25.4083 69.7209 25.2177C69.8714 25.0271 69.9466 24.8081 69.9466 24.5606C69.9466 24.3299 69.8781 24.1359 69.741 23.9788C69.6072 23.8216 69.4099 23.6879 69.1491 23.5775C68.8916 23.4672 68.5756 23.3668 68.2011 23.2765L67.0825 22.9956C66.2164 22.785 65.5326 22.4556 65.031 22.0075C64.5294 21.5594 64.2802 20.9558 64.2836 20.1967C64.2802 19.5748 64.4458 19.0314 64.7802 18.5665C65.1179 18.1017 65.5811 17.7389 66.1696 17.4781C66.7581 17.2172 67.4269 17.0868 68.176 17.0868C68.9384 17.0868 69.6039 17.2172 70.1723 17.4781C70.7442 17.7389 71.1889 18.1017 71.5066 18.5665C71.8243 19.0314 71.9881 19.5697 71.9982 20.1817H69.9165ZM77.2411 27.5H73.5995V17.2273H77.2712C78.3045 17.2273 79.194 17.4329 79.9397 17.8442C80.6854 18.2522 81.2589 18.8391 81.6602 19.6048C82.0648 20.3706 82.2671 21.2869 82.2671 22.3536C82.2671 23.4237 82.0648 24.3433 81.6602 25.1124C81.2589 25.8815 80.6821 26.4717 79.9297 26.883C79.1806 27.2943 78.2844 27.5 77.2411 27.5ZM75.7714 25.6391H77.1508C77.7929 25.6391 78.3329 25.5254 78.771 25.298C79.2124 25.0672 79.5435 24.7111 79.7642 24.2296C79.9882 23.7447 80.1002 23.1194 80.1002 22.3536C80.1002 21.5945 79.9882 20.9742 79.7642 20.4927C79.5435 20.0111 79.2141 19.6567 78.776 19.4293C78.3379 19.2019 77.7979 19.0882 77.1558 19.0882H75.7714V25.6391Z" fill="black"/>
</svg>
