<svg width="25" height="25" viewBox="0 0 25 25" fill="none" xmlns="http://www.w3.org/2000/svg">
<path d="M9.97199 22.786L2.342 14.896L4.212 13.026L7.60199 13.626C7.68199 13.626 8.10199 13.626 8.332 13.416L10.482 11.336C10.502 11.286 10.522 11.206 10.522 11.176C10.522 11.156 10.452 11.076 10.262 10.986L3.062 7.66601L5.802 4.98601L14.632 6.57601C14.832 6.59601 15.122 6.59601 15.252 6.57601L18.462 3.33601C19.322 2.55601 21.042 1.58601 22.222 2.75601C23.392 3.92601 22.462 5.63601 21.732 6.46601L18.572 9.69601C18.552 9.75601 18.522 9.93601 18.582 10.306L20.102 19.136L17.402 21.566L14.112 14.726C14.0636 14.6661 14.002 14.6182 13.932 14.586L11.442 16.916C11.442 16.916 11.432 17.066 11.452 17.216L12.002 20.836L9.962 22.786H9.97199ZM4.442 14.916L10.012 20.666L10.412 20.286L9.982 17.436C9.822 16.396 10.232 15.936 10.492 15.756L12.912 13.516C13.362 13.096 13.822 13.056 14.112 13.086C14.842 13.166 15.292 13.776 15.382 13.896L15.442 13.996L17.892 19.096L18.482 18.556L17.102 10.546C16.892 9.32601 17.292 8.79601 17.542 8.58601L20.632 5.43601C20.882 5.14601 21.522 4.17601 21.162 3.80601C20.802 3.44601 19.802 4.12601 19.502 4.40601L16.232 7.69601C15.762 8.14601 14.882 8.11601 14.402 8.04601L6.302 6.59601L5.672 7.21601L10.882 9.61601C11.612 9.94601 11.872 10.436 11.962 10.786C12.162 11.536 11.732 12.166 11.682 12.236L11.592 12.346L9.35199 14.516C8.57199 15.226 7.502 15.136 7.39199 15.116L4.722 14.646L4.452 14.916H4.442Z" fill="#333333"/>
</svg>
