<svg width="25" height="25" viewBox="0 0 25 25" fill="none" xmlns="http://www.w3.org/2000/svg">
<path fill-rule="evenodd" clip-rule="evenodd" d="M3.83201 5.90499C3.83201 5.43499 4.21201 5.05499 4.68201 5.05499H20.306C20.776 5.05499 21.156 5.43499 21.156 5.90499V12.554C21.836 13.116 22.376 13.947 22.376 15.098V19.945H20.876V18.27H4.28401V19.944H2.78401V15.07C2.80901 14.416 3.08801 13.482 3.83301 12.72L3.83201 5.90499ZM6.46701 11.492C6.72968 11.4573 7.00835 11.44 7.30301 11.44H11.199C10.696 10.958 9.88901 10.51 8.76601 10.51C7.67601 10.51 6.93701 10.977 6.46701 11.492ZM13.855 11.44H18.323L18.359 11.444C18.5223 11.4587 18.701 11.486 18.895 11.526C18.8277 11.4425 18.7538 11.3646 18.674 11.293C18.227 10.883 17.494 10.51 16.42 10.51C15.342 10.51 14.67 10.783 14.24 11.094C14.0996 11.1951 13.9705 11.3111 13.855 11.44ZM19.655 10.158C18.929 9.50699 17.843 9.00999 16.42 9.00999C15.073 9.00999 14.082 9.35699 13.36 9.87799C13.018 10.126 12.75 10.403 12.539 10.68C11.803 9.81899 10.534 9.00999 8.76501 9.00999C7.13601 9.00999 6.03201 9.72199 5.33101 10.513V6.55499H19.655V10.158ZM4.28301 16.77H20.877V15.097C20.877 14.394 20.522 13.909 19.989 13.552C19.429 13.178 18.726 12.991 18.249 12.939H7.30401C6.18601 12.939 5.49401 13.256 5.06701 13.617C4.49701 14.099 4.30201 14.74 4.28401 15.113L4.28301 16.77Z" fill="#333333"/>
</svg>
