<svg width="25" height="25" viewBox="0 0 25 25" fill="none" xmlns="http://www.w3.org/2000/svg">
<path fill-rule="evenodd" clip-rule="evenodd" d="M14.418 5.391L17.09 2.72L18.15 3.78L15.479 6.452C14.8 7.131 14.424 7.914 14.359 8.651C14.316 9.151 14.413 9.654 14.686 10.123L19.59 5.22L20.65 6.28L15.744 11.186C16.217 11.467 16.718 11.573 17.21 11.54C17.928 11.493 18.677 11.146 19.306 10.517C20.1591 9.66304 21.0104 8.80737 21.86 7.95L22.086 7.722L23.153 8.777L22.926 9.007C22.0743 9.86528 21.221 10.722 20.366 11.577C19.517 12.426 18.439 12.961 17.309 13.036C16.3639 13.0991 15.4267 12.8271 14.662 12.268L13.431 13.5L21.151 21.22L20.09 22.28L14.12 16.31L11.12 19.31L9.37003 17.56L4.65003 22.28L3.59003 21.22L8.31003 16.5L3.91803 12.109C3.47688 11.6679 3.12693 11.1442 2.88818 10.5679C2.64943 9.99156 2.52654 9.37384 2.52654 8.75C2.52654 8.12616 2.64943 7.50844 2.88818 6.9321C3.12693 6.35576 3.47688 5.83209 3.91803 5.391L4.62003 4.689L12.37 12.439L13.603 11.207C13.041 10.4301 12.7793 9.47596 12.866 8.521C12.966 7.374 13.535 6.275 14.418 5.391ZM13.06 15.25L4.64803 6.838C4.19259 7.46404 3.97559 8.23209 4.03609 9.0039C4.09659 9.77571 4.43061 10.5006 4.97803 11.048L11.12 17.189L13.06 15.25Z" fill="#333333"/>
</svg>
