<svg width="25" height="25" viewBox="0 0 25 25" fill="none" xmlns="http://www.w3.org/2000/svg">
<path fill-rule="evenodd" clip-rule="evenodd" d="M12.159 4.042C12.1179 4.01449 12.0695 3.9998 12.02 3.9998C11.9705 3.9998 11.9222 4.01449 11.881 4.042L3.88102 9.375C3.84684 9.39787 3.81882 9.42881 3.79946 9.4651C3.7801 9.50138 3.76999 9.54188 3.77002 9.583V20.048C3.77002 20.186 3.88202 20.298 4.02002 20.298H20.02C20.0863 20.298 20.1499 20.2717 20.1968 20.2248C20.2437 20.1779 20.27 20.1143 20.27 20.048V9.583C20.2701 9.54188 20.2599 9.50138 20.2406 9.4651C20.2212 9.42881 20.1932 9.39787 20.159 9.375L12.159 4.042ZM11.049 2.794C11.3365 2.60224 11.6744 2.49991 12.02 2.49991C12.3656 2.49991 12.7035 2.60224 12.991 2.794L20.991 8.127C21.478 8.452 21.77 8.998 21.77 9.583V20.048C21.77 20.5121 21.5856 20.9573 21.2575 21.2854C20.9293 21.6136 20.4841 21.798 20.02 21.798H4.02002C3.79021 21.798 3.56264 21.7527 3.35032 21.6648C3.138 21.5768 2.94509 21.4479 2.78258 21.2854C2.62008 21.1229 2.49118 20.93 2.40323 20.7177C2.31528 20.5054 2.27002 20.2778 2.27002 20.048V9.583C2.27002 8.998 2.56202 8.452 3.05002 8.127L11.049 2.794Z" fill="black"/>
</svg>
