<svg width="25" height="25" viewBox="0 0 25 25" fill="none" xmlns="http://www.w3.org/2000/svg">
<path fill-rule="evenodd" clip-rule="evenodd" d="M3.02002 5.25H22.52V9.704L21.984 9.864C21.4171 10.034 20.9201 10.3823 20.5667 10.8572C20.2134 11.332 20.0226 11.9081 20.0226 12.5C20.0226 13.0919 20.2134 13.668 20.5667 14.1428C20.9201 14.6177 21.4171 14.966 21.984 15.136L22.52 15.296V19.75H3.02002V15.296L3.55602 15.136C4.12295 14.966 4.61996 14.6177 4.97329 14.1428C5.32662 13.668 5.51745 13.0919 5.51745 12.5C5.51745 11.9081 5.32662 11.332 4.97329 10.8572C4.61996 10.3823 4.12295 10.034 3.55602 9.864L3.02002 9.704V5.25ZM4.52002 6.75V8.626C5.26571 8.96242 5.89846 9.5069 6.34232 10.1941C6.78617 10.8813 7.02227 11.6819 7.02227 12.5C7.02227 13.3181 6.78617 14.1187 6.34232 14.8059C5.89846 15.4931 5.26571 16.0376 4.52002 16.374V18.25H21.02V16.374C20.2743 16.0376 19.6416 15.4931 19.1977 14.8059C18.7539 14.1187 18.5178 13.3181 18.5178 12.5C18.5178 11.6819 18.7539 10.8813 19.1977 10.1941C19.6416 9.5069 20.2743 8.96242 21.02 8.626V6.75H4.52002Z" fill="#333333"/>
<path d="M12.77 15C13.0352 15 13.2896 15.1054 13.4771 15.2929C13.6647 15.4804 13.77 15.7348 13.77 16C13.77 16.2652 13.6647 16.5196 13.4771 16.7071C13.2896 16.8946 13.0352 17 12.77 17C12.5048 17 12.2504 16.8946 12.0629 16.7071C11.8754 16.5196 11.77 16.2652 11.77 16C11.77 15.7348 11.8754 15.4804 12.0629 15.2929C12.2504 15.1054 12.5048 15 12.77 15ZM12.77 11.5C13.0352 11.5 13.2896 11.6054 13.4771 11.7929C13.6647 11.9804 13.77 12.2348 13.77 12.5C13.77 12.7652 13.6647 13.0196 13.4771 13.2071C13.2896 13.3946 13.0352 13.5 12.77 13.5C12.5048 13.5 12.2504 13.3946 12.0629 13.2071C11.8754 13.0196 11.77 12.7652 11.77 12.5C11.77 12.2348 11.8754 11.9804 12.0629 11.7929C12.2504 11.6054 12.5048 11.5 12.77 11.5ZM12.77 8C13.0352 8 13.2896 8.10536 13.4771 8.29289C13.6647 8.48043 13.77 8.73478 13.77 9C13.77 9.26522 13.6647 9.51957 13.4771 9.70711C13.2896 9.89464 13.0352 10 12.77 10C12.5048 10 12.2504 9.89464 12.0629 9.70711C11.8754 9.51957 11.77 9.26522 11.77 9C11.77 8.73478 11.8754 8.48043 12.0629 8.29289C12.2504 8.10536 12.5048 8 12.77 8Z" fill="#333333"/>
</svg>
