<svg width="25" height="25" viewBox="0 0 25 25" fill="none" xmlns="http://www.w3.org/2000/svg">
<path fill-rule="evenodd" clip-rule="evenodd" d="M12.945 2.67401L22.705 9.17401V22.326H3.19501V9.17401L12.945 2.67401ZM12.945 4.47701L4.69501 9.97701V20.826H21.205V9.97701L12.945 4.47701ZM9.95501 12.836C9.62349 12.836 9.30554 12.9677 9.07112 13.2021C8.8367 13.4365 8.70501 13.7545 8.70501 14.086C8.70501 14.4175 8.8367 14.7355 9.07112 14.9699C9.30554 15.2043 9.62349 15.336 9.95501 15.336C10.2865 15.336 10.6045 15.2043 10.8389 14.9699C11.0733 14.7355 11.205 14.4175 11.205 14.086C11.205 13.7545 11.0733 13.4365 10.8389 13.2021C10.6045 12.9677 10.2865 12.836 9.95501 12.836ZM7.20501 14.086C7.2048 13.4221 7.44477 12.7805 7.88064 12.2797C8.3165 11.7789 8.91883 11.4527 9.57642 11.3613C10.234 11.2699 10.9025 11.4195 11.4584 11.7824C12.0143 12.1454 12.4202 12.6972 12.601 13.336H18.945V14.836H16.695V17.086H15.195V14.836H12.601C12.4188 15.4734 12.0125 16.0235 11.4569 16.3852C10.9014 16.7469 10.2339 16.8958 9.57727 16.8046C8.92066 16.7133 8.31909 16.388 7.88322 15.8885C7.44736 15.389 7.20652 14.7489 7.20501 14.086Z" fill="#333333"/>
</svg>
