<svg width="13" height="13" viewBox="0 0 13 13" fill="none" xmlns="http://www.w3.org/2000/svg">
<path fill-rule="evenodd" clip-rule="evenodd" d="M6.39 0.890137C3.0845 0.890137 0.389999 3.58464 0.389999 6.89014C0.389999 10.2001 3.0845 12.8901 6.39 12.8901C9.7 12.8901 12.39 10.2006 12.39 6.89014C12.39 3.57964 9.7005 0.890137 6.39 0.890137ZM6.39 1.89014C7.0469 1.88908 7.69756 2.01769 8.30466 2.26859C8.91177 2.51949 9.46338 2.88775 9.92788 3.35225C10.3924 3.81676 10.7606 4.36837 11.0115 4.97547C11.2624 5.58258 11.3911 6.23323 11.39 6.89014C11.3916 7.54719 11.2633 8.19808 11.0126 8.80542C10.7619 9.41277 10.3937 9.96459 9.92906 10.4292C9.46445 10.8938 8.91263 11.262 8.30529 11.5128C7.69795 11.7635 7.04705 11.8917 6.39 11.8901V1.89014Z" fill="#00AA6C"/>
</svg>
